<mxfile host="app.diagrams.net" modified="2024-04-01T23:17:22.969Z" agent="Mozilla/5.0 (Windows NT 10.0; Win64; x64) AppleWebKit/537.36 (KHTML, like Gecko) Chrome/121.0.0.0 Safari/537.36 OPR/107.0.0.0" etag="zG4u6miSgO_XTKi7JdDC" version="24.1.0" type="device">
  <diagram name="Страница — 1" id="k0BnB_mR2-notkh1yUZD">
    <mxGraphModel dx="1071" dy="705" grid="1" gridSize="10" guides="1" tooltips="1" connect="1" arrows="1" fold="1" page="1" pageScale="1" pageWidth="827" pageHeight="1169" math="0" shadow="0">
      <root>
        <mxCell id="0" />
        <mxCell id="1" parent="0" />
        <mxCell id="g6LHZwPIn7G6scIwCDvx-7" style="edgeStyle=orthogonalEdgeStyle;rounded=0;orthogonalLoop=1;jettySize=auto;html=1;exitX=0.5;exitY=1;exitDx=0;exitDy=0;entryX=0.5;entryY=0;entryDx=0;entryDy=0;" edge="1" parent="1" source="g6LHZwPIn7G6scIwCDvx-1" target="g6LHZwPIn7G6scIwCDvx-2">
          <mxGeometry relative="1" as="geometry" />
        </mxCell>
        <mxCell id="g6LHZwPIn7G6scIwCDvx-1" value="&lt;font style=&quot;font-size: 18px;&quot;&gt;Начало&lt;/font&gt;" style="ellipse;whiteSpace=wrap;html=1;" vertex="1" parent="1">
          <mxGeometry x="320" y="40" width="170" height="80" as="geometry" />
        </mxCell>
        <mxCell id="g6LHZwPIn7G6scIwCDvx-8" style="edgeStyle=orthogonalEdgeStyle;rounded=0;orthogonalLoop=1;jettySize=auto;html=1;exitX=0.5;exitY=1;exitDx=0;exitDy=0;entryX=0.5;entryY=0;entryDx=0;entryDy=0;" edge="1" parent="1" source="g6LHZwPIn7G6scIwCDvx-2" target="g6LHZwPIn7G6scIwCDvx-3">
          <mxGeometry relative="1" as="geometry" />
        </mxCell>
        <mxCell id="g6LHZwPIn7G6scIwCDvx-12" style="edgeStyle=orthogonalEdgeStyle;rounded=0;orthogonalLoop=1;jettySize=auto;html=1;exitX=1;exitY=0.5;exitDx=0;exitDy=0;" edge="1" parent="1" source="g6LHZwPIn7G6scIwCDvx-2">
          <mxGeometry relative="1" as="geometry">
            <mxPoint x="405" y="610" as="targetPoint" />
            <Array as="points">
              <mxPoint x="520" y="175" />
              <mxPoint x="520" y="610" />
            </Array>
          </mxGeometry>
        </mxCell>
        <mxCell id="g6LHZwPIn7G6scIwCDvx-2" value="&lt;font style=&quot;font-size: 16px;&quot;&gt;abs(x1 - x2) &amp;gt; n&lt;/font&gt;" style="rhombus;whiteSpace=wrap;html=1;" vertex="1" parent="1">
          <mxGeometry x="320" y="140" width="170" height="70" as="geometry" />
        </mxCell>
        <mxCell id="g6LHZwPIn7G6scIwCDvx-9" style="edgeStyle=orthogonalEdgeStyle;rounded=0;orthogonalLoop=1;jettySize=auto;html=1;exitX=0.5;exitY=1;exitDx=0;exitDy=0;entryX=0.5;entryY=0;entryDx=0;entryDy=0;" edge="1" parent="1" source="g6LHZwPIn7G6scIwCDvx-3" target="g6LHZwPIn7G6scIwCDvx-4">
          <mxGeometry relative="1" as="geometry" />
        </mxCell>
        <mxCell id="g6LHZwPIn7G6scIwCDvx-3" value="&lt;div&gt;x1n := 2 * x1 / 3 + x2 / 3;&lt;/div&gt;&lt;div&gt;x2n := x1 / 3 + 2 * x2 / 3;&lt;/div&gt;&lt;div&gt;y1n := 2 * y1 / 3 + y2 / 3;&lt;/div&gt;&lt;div&gt;y2n := y1 / 3 + 2 * y2 / 3;&lt;/div&gt;" style="rounded=0;whiteSpace=wrap;html=1;" vertex="1" parent="1">
          <mxGeometry x="320" y="230" width="170" height="80" as="geometry" />
        </mxCell>
        <mxCell id="g6LHZwPIn7G6scIwCDvx-10" style="edgeStyle=orthogonalEdgeStyle;rounded=0;orthogonalLoop=1;jettySize=auto;html=1;exitX=0.5;exitY=1;exitDx=0;exitDy=0;entryX=0.5;entryY=0;entryDx=0;entryDy=0;" edge="1" parent="1" source="g6LHZwPIn7G6scIwCDvx-4" target="g6LHZwPIn7G6scIwCDvx-5">
          <mxGeometry relative="1" as="geometry" />
        </mxCell>
        <mxCell id="g6LHZwPIn7G6scIwCDvx-4" value="Rectangle(Round(x1n), Round(y1n), Round(x2n), Round(y2n));" style="rounded=0;whiteSpace=wrap;html=1;" vertex="1" parent="1">
          <mxGeometry x="320" y="340" width="170" height="70" as="geometry" />
        </mxCell>
        <mxCell id="g6LHZwPIn7G6scIwCDvx-11" style="edgeStyle=orthogonalEdgeStyle;rounded=0;orthogonalLoop=1;jettySize=auto;html=1;exitX=0.5;exitY=1;exitDx=0;exitDy=0;entryX=0.5;entryY=0;entryDx=0;entryDy=0;" edge="1" parent="1" source="g6LHZwPIn7G6scIwCDvx-5" target="g6LHZwPIn7G6scIwCDvx-6">
          <mxGeometry relative="1" as="geometry" />
        </mxCell>
        <mxCell id="g6LHZwPIn7G6scIwCDvx-5" value="&lt;div&gt;kover(x1, y1, x1n, y1n, n);&lt;/div&gt;&lt;div&gt;&amp;nbsp; kover(x1n, y1, x2n, y1n, n);&lt;/div&gt;&lt;div&gt;kover(x2n, y1, x2, y1n, n);&lt;/div&gt;&lt;div&gt;&amp;nbsp; kover(x1, y1n, x1n, y2n, n);&lt;/div&gt;&lt;div&gt;&amp;nbsp; kover(x2n, y1n, x2, y2n, n);&lt;/div&gt;&lt;div&gt;kover(x1, y2n, x1n, y2, n);&lt;/div&gt;&lt;div&gt;&amp;nbsp; kover(x1n, y2n, x2n, y2, n);&lt;/div&gt;&lt;div&gt;kover(x2n, y2n, x2, y2, n)&lt;/div&gt;" style="rounded=0;whiteSpace=wrap;html=1;" vertex="1" parent="1">
          <mxGeometry x="320" y="440" width="170" height="145" as="geometry" />
        </mxCell>
        <mxCell id="g6LHZwPIn7G6scIwCDvx-6" value="&lt;font style=&quot;font-size: 18px;&quot;&gt;Конец&lt;/font&gt;" style="ellipse;whiteSpace=wrap;html=1;" vertex="1" parent="1">
          <mxGeometry x="320" y="630" width="170" height="80" as="geometry" />
        </mxCell>
        <mxCell id="g6LHZwPIn7G6scIwCDvx-13" value="Нет" style="text;html=1;align=center;verticalAlign=middle;whiteSpace=wrap;rounded=0;" vertex="1" parent="1">
          <mxGeometry x="470" y="150" width="60" height="30" as="geometry" />
        </mxCell>
        <mxCell id="g6LHZwPIn7G6scIwCDvx-14" value="Да" style="text;html=1;align=center;verticalAlign=middle;whiteSpace=wrap;rounded=0;" vertex="1" parent="1">
          <mxGeometry x="400" y="200" width="60" height="30" as="geometry" />
        </mxCell>
      </root>
    </mxGraphModel>
  </diagram>
</mxfile>
